Patient4_TMGait_0pt4_03_left_07_EMG.mot
version=1
nRows=40
nColumns=33
inDegrees=no
endheader
time	1LAddLong	2LGlutMax	3LGlutMed	4LIliopsoas	5LSemiMemb	6LBicFemLong	7LRecFem	8LVastMed	9LVastLat	10LGasMed	11LTibAnt	12lTibPost	13LPeroneusLong	14LSol	15LExtDigLong	16LFlexDigLong	17RAddLong	18RGlutMax	19RGlutMed	20RIliopsoas	21RSemiMemb	22RBicFemLong	23RRecFem	24RVastMed	25RVastLat	26RGasMed	27RTibAnt	28RTibPost	29RPeroneusLong	30RSol	31RExtDigLong	32RFlexDigLong
9.207	-0.016632	-0.083923	0.3067	-0.013885	0.01709	0.097351	-0.96374	-0.010834	-0.064392	-0.08667	-0.074921	-0.070648	0.10391	-0.089417	-0.17639	-0.11734	0.15045	0.27023	0.20386	0.050049	0.059357	-0.096893	0.29465	0.14236	-0.058441	-0.002899	0.29266	-0.014801	-0.24994	-0.12161	-0.005798	-0.007782
9.208	-0.022278	-0.10727	0.17487	0.015717	-0.061188	0.060883	-0.93338	-0.028839	-0.05127	-0.01358	0.13412	-0.055695	-0.10208	-0.066223	-0.43793	0.011139	0.11673	0.27863	0.086823	0.011902	0.067749	-0.061188	0.23041	0.12421	-0.05661	-0.016632	-0.31723	-0.010529	-0.14084	0.053711	-0.00946	0.005646
9.209	-0.000916	-0.082703	0.12253	0.017242	-0.11932	-0.012817	-0.91156	-0.034943	-0.002289	0.26062	0.083313	-0.06134	-0.036163	-0.19913	-0.31464	0.018311	0.079498	0.30792	0.014191	-0.028381	0.048981	0.010376	0.20859	0.12726	-0.048523	-0.012512	-0.37155	-0.011749	-0.080261	0.24704	-0.009155	-0.004272
9.21	0.005341	-0.080414	0.10483	0.008545	-0.093994	0	-0.92239	-0.02121	0.079041	-0.071564	-0.14435	-0.1268	-0.058899	-0.6012	-0.48401	-0.41321	0.048981	0.33142	0.002136	0.006561	0.088806	0.075226	0.15091	0.23804	-0.014191	-0.007629	-0.092316	-0.01297	-0.058746	0.34027	-0.006714	-0.007629
9.211	0.019226	-0.11154	-0.080566	-0.001221	-0.043182	0.059509	-0.89783	-0.028992	0.097809	-0.35584	-0.15793	0.32608	-0.016937	-0.60821	-0.37079	-0.056	-0.000305	0.30579	0.050507	0.08255	0.096283	0.10269	0.13412	0.2565	-0.017548	-0.001678	0.022888	-0.011444	0.066681	0.33478	-0.007172	-0.00473
9.212	0.007782	-0.17868	-0.31632	0.003357	-0.047913	0.0354	-0.86533	-0.017548	0.097046	-0.16922	-0.070496	-0.01709	-0.10605	-0.53162	-0.50705	0.038147	-0.036011	0.27329	0.043182	0.18463	0.10025	0.055542	0.082245	0.25833	-0.019989	0.00824	0.14969	-0.007172	0.0737	0.29129	-0.006714	-0.010986
9.213	0.01358	-0.15335	-0.44296	-0.004883	0.00885	0.007629	-0.85388	-0.001221	0.095673	-0.1738	0.005188	-0.121	-0.24277	-0.33142	-0.34256	-0.32944	-0.015106	0.24475	-0.074158	0.17349	0.086365	0.058441	0.056152	0.25848	-0.024567	0.010223	0.031128	-0.009155	-0.004425	0.25192	-0.009918	-0.007629
9.214	0.030212	-0.13458	-0.49683	-0.009918	0.078125	0.0914	-0.84137	0.00061	0.078888	-0.25528	0.054474	-0.15808	-0.19211	0.064545	0.075073	-0.28153	-0.033875	0.24063	-0.095215	0.053711	0.12894	0.008698	0.090942	0.29999	-0.026703	-0.011749	0.10849	-0.008392	-0.14603	0.28625	-0.012817	-0.017242
9.215	0.030975	-0.10208	-0.15182	0.00061	0.051727	0.17944	-0.76416	0.006409	0.065918	0.19714	-0.01236	-0.050964	-0.007477	0.3894	0.32974	0.17609	-0.038757	0.20691	0.014954	-0.074768	0.18936	-0.051727	0.13031	0.2742	-0.019684	-0.012665	0.22003	-0.004425	-0.17181	0.27237	-0.009003	-0.020294
9.216	0.019684	-0.15228	0.053406	0.020905	0.045166	0.062256	-0.7106	0.001373	0.05661	0.7727	-0.055542	-0.031128	0.14206	-0.038147	0.26794	0.18051	-0.041351	0.21591	0.084839	-0.049896	0.17334	0.009613	0.17319	0.25513	-0.013733	-0.011139	0.025482	-0.00351	-0.10147	0.13107	-0.010071	-0.01236
9.217	0.015411	-0.18265	0.075836	0.000458	0.049286	0.059509	-0.75211	-0.002899	0.12009	0.71533	-0.005951	0.00351	0.15671	-0.54611	0.41214	-0.080566	0.018463	0.20813	0.11368	0.11993	0.10635	0.041351	0.16571	0.21378	-0.02182	-0.007324	-0.20966	-0.013885	-0.091553	0.085297	-0.009613	-0.014801
9.218	-0.005188	-0.13229	0.044098	0.000305	0.040588	0.068665	-0.69046	-0.002441	0.20493	-0.052338	0.020447	-0.010376	0.15167	-0.81467	-0.030212	-0.086212	0.01358	0.20065	0.22385	0.10361	0.066528	0.083923	0.15564	0.13931	-0.039673	0.001068	-0.6015	-0.003204	-0.030975	-0.010681	-0.009308	-0.022736
9.219	-0.010223	-0.046234	-0.065918	0.005646	-0.033569	0.15595	-0.73944	0.007324	0.21423	-0.1181	0.066681	-0.037079	0.06897	-0.29541	-0.079346	-0.050812	0.001984	0.12405	0.26291	0.030518	0.028687	0.099487	0.18082	0.11505	-0.018158	-0.000916	-0.12009	-0.003357	-0.13534	-0.04776	-0.006866	-0.02243
9.22	-0.016632	0.028381	-0.1683	0.013275	-0.083313	0.19898	-0.74692	-0.000458	0.27115	-0.45242	0.15152	-0.047455	0.000916	0.22415	-0.023041	-0.016479	0.003967	0.072327	0.24689	-0.003052	0.010834	0.063782	0.12436	0.02533	-0.029602	-0.002136	0.21515	-0.005951	-0.09491	-0.075989	-0.013275	-0.017395
9.221	-0.021057	0.21255	0.030823	0.016479	-0.1059	0.075378	-0.73532	-0.003967	0.24872	-0.38574	0.13367	-0.031586	-0.096893	0.22324	0.2005	-0.04303	-0.02594	-0.055542	0.13733	0.10208	0.001373	0.11597	0.19272	-0.027313	-0.05127	-0.001984	0.1535	-0.003357	0.082397	-0.096588	-0.007477	-0.00946
9.222	0.01358	0.24338	0.17487	0.020752	-0.044861	-0.47699	-0.9021	0.017548	0.19272	-0.34347	-0.010376	-0.012665	-0.078278	0.079041	0.036621	0.018463	-0.048218	-0.17822	0.10086	0.20874	-0.025482	0.06897	0.14786	-0.087433	-0.045471	-0.001068	-0.018005	-0.001526	0.070343	-0.044098	-0.009003	-0.017242
9.223	0.023041	0.28183	0.35141	-0.001831	0.089264	-0.37781	-0.95901	0.034485	0.07843	-0.19058	0.006104	-0.01297	-0.079498	0.0354	0.029297	0.02121	-0.042572	-0.24612	0.14008	0.11887	-0.026093	0.038147	0.10712	-0.11719	-0.0354	-0.010376	-0.1619	-0.005951	-0.075378	0.020905	-0.008392	-0.002747
9.224	0.005951	0.34668	0.19867	-0.002899	0.053101	-0.2507	-0.81024	0.013885	-0.087738	-0.1149	0.18051	-0.014954	-0.060425	0.046692	0.11078	0.099335	-0.009613	-0.31052	0.048828	-0.15198	-0.015106	0.019684	0.15381	-0.17853	-0.027466	0.002594	0.08316	-0.008087	-0.15381	0.059509	-0.011597	-0.014038
9.225	-0.0177	0.4068	0.096893	0.000458	-0.024567	-0.21713	-0.65903	0.003052	-0.043945	-0.087738	0.22873	-0.017853	0.049286	0.10346	0.11612	-0.24246	0.036926	-0.38376	-0.008392	-0.20874	0.006714	-0.044861	0.1506	-0.16586	-0.036621	0.000305	0.37811	-0.002899	-0.19257	-0.031128	-0.008392	-0.014954
9.226	-0.011902	0.43503	0.10635	0.002289	-0.16953	-0.26123	-0.5722	-0.006104	-0.16846	-0.018463	0.24628	-0.012665	0.042114	0.25345	0.25177	0.1976	0.11887	-0.40878	-0.034637	-0.030518	0.010376	-0.02594	0.11444	-0.20157	-0.041504	0.007629	0.62637	0	-0.18234	-0.092773	-0.008698	0.001373
9.227	0.004425	0.40497	0.16754	0.013123	-0.17151	-0.3215	-0.55298	0.002136	-0.15243	-0.012207	0.15579	-0.013275	0.040588	0.35584	0.31632	0.15915	0.18417	-0.48859	-0.09552	0.055542	-0.01236	-0.021973	0.1326	-0.20371	-0.032959	0.005493	0.2182	0.000458	-0.089569	-0.11093	-0.010529	-0.012512
9.228	-0.000153	0.36133	0.067902	-0.00946	-0.11978	-0.22537	-0.53741	0.01297	-0.10895	0.036316	-0.12802	-0.014343	-0.062561	0.37918	0.23621	0.14938	0.17242	-0.51804	-0.16937	0.16144	-0.047607	-0.026398	0.11383	-0.17197	-0.042419	-0.001678	-0.076141	-0.000763	-0.061646	-0.062256	-0.010681	-0.004425
9.229	0.017395	0.31113	-0.041809	0.007935	-0.030975	-0.092621	-0.53055	-0.003662	-0.066986	0.071869	-0.12009	-0.01236	-0.10849	0.29755	0.31342	0.177	0.080109	-0.50797	-0.009003	0.2272	-0.083771	-0.033417	0.22751	-0.20309	-0.052185	-0.008698	-0.12421	-0.002594	-0.085602	0.013123	-0.009766	-0.011902
9.23	0.023499	0.28061	-0.03067	0.012817	0.14511	-0.081177	-0.52948	-0.007782	-0.008392	0.003357	0.01236	-0.011444	-0.054626	0.20615	-0.1088	-0.077057	0.019379	-0.48935	0.23346	0.080261	-0.11017	-0.029449	0.28015	-0.20065	-0.062256	-0.008545	0.17181	0.001221	-0.1088	-0.031891	-0.011902	-0.013733
9.231	0.03479	0.24429	0.04364	0.006714	0.18768	-0.024261	-0.5307	-0.018921	0.085144	-0.11322	-0.050049	-0.018463	0.082092	0.15747	0.093842	-1.1937	-0.00412	-0.49393	0.34714	-0.088959	-0.10422	-0.029297	0.31113	-0.19501	-0.047302	-0.005035	0.52917	0.000458	-0.05661	0.0177	-0.007019	-0.007935
9.232	0.023499	0.19913	0.070496	0.011292	0.13092	0.18509	-0.51041	-0.017548	0.068054	-0.089722	-0.35523	-0.022125	0.095367	0.081177	1.4288	0.43488	-0.024109	-0.45151	0.097351	-0.14404	-0.10315	-0.025787	0.3891	-0.1033	-0.059204	-0.009308	0.71396	-0.000916	-0.035095	0.047302	-0.009766	-0.012665
9.233	0.013123	0.10559	0.046539	0.007477	0.070038	0.30395	-0.49347	-0.010986	0.045166	0.044403	-0.30838	-0.020294	0.12589	0.11978	-0.76141	-0.48523	-0.022278	-0.45578	-0.2153	-0.19669	-0.10162	-0.01709	0.29648	0.056305	-0.068207	-0.002136	0.68375	0.009918	-0.055237	-0.009766	-0.005951	-0.0177
9.234	0.006104	0.079193	-0.037231	0.005646	0.034332	0.28656	-0.45837	-0.008087	0.054626	0.045624	-0.093231	-0.009308	0.15228	0.14771	-0.36224	0.21515	0.022125	-0.439	-0.27222	-0.2269	-0.11978	-0.048523	0.271	0.048676	-0.046844	0.00473	-0.16922	-0.003357	-0.043335	-0.068207	-0.009003	-0.014343
9.235	0.007172	0.11017	0.027771	0.007782	0.010223	0.25589	-0.43884	-0.00351	0.045624	-0.002747	0.046082	-0.006866	0.065308	-0.002289	-0.67276	1.2105	0.024567	-0.41382	-0.33402	-0.11536	-0.083618	-0.030518	0.19363	0.091248	-0.034485	-0.001068	-0.29572	0.000153	-0.095062	-0.042877	-0.007324	-0.019989
9.236	0.001526	0.097961	0.11917	0.008392	0.007935	0.24399	-0.39154	0.009155	-0.005798	0.002441	0.055847	0.38345	-0.098572	-0.090942	-0.34119	-0.34897	0.004272	-0.39764	-0.18524	-0.001678	-0.053711	0.070953	0.2243	0.14481	0.002289	0.00061	-0.14771	0.000153	-0.048523	0.006409	-0.00946	-0.019226
9.237	-0.002136	0.095215	0.215	0.014954	0.003967	0.16754	-0.33615	0	-0.062256	-0.079498	-0.031281	-0.19653	-0.17212	0.01297	-0.22812	0.49805	0.02243	-0.31937	-0.25406	0.19424	-0.030823	0.10208	0.17685	0.21057	-0.003967	0.003967	0.072021	0.001526	-0.058594	-0.005798	-0.011902	-0.01709
9.238	-0.005188	0.089569	0.16571	0.006714	0.007324	0.06424	-0.32379	0.00351	-0.053711	-0.38711	-0.038452	-0.11841	0.025024	-0.003204	-0.31677	0.32516	0.025024	-0.22385	-0.25406	0.21011	-0.012054	0.070953	0.1973	0.22522	-0.002441	-0.000458	0.061188	-0.000763	-0.09491	-0.04425	-0.00824	-0.022736
9.239	-0.007782	0.066528	0.11765	0.018768	-0.012665	0.030518	-0.3157	0.004883	-0.03891	-0.52429	-0.1004	0.03006	0.21149	0.021362	-0.11917	0.23758	-0.016022	-0.20508	-0.023651	0.018768	0.00061	0.08667	0.289	0.1648	-0.003967	-0.009155	0.04303	0.001068	-0.12009	-0.027008	-0.008545	-0.017548
9.24	0.001831	0.10849	0.060425	0.000916	-0.044708	-0.20645	-0.30029	-0.001526	-0.013428	-0.29816	-0.054016	-0.024261	0.15518	0.093231	0.1149	0.57907	-0.01297	-0.1709	0.019684	-0.11047	0.029602	0.087891	0.33493	0.168	0.010681	-0.001984	-0.11887	0.001526	-0.069427	-0.035248	0.002747	-0.020905
9.241	0.008087	0.061493	0.005035	-0.017548	-0.04776	-0.1506	-0.31662	0.001831	-0.006714	-0.16113	-0.063019	-0.05127	0.13687	0.10193	0.083008	-0.513	-0.018158	-0.16052	0.068665	-0.085297	0.058441	0.098877	0.33539	0.13077	-0.005493	0.001831	-0.11032	0.000305	0.025635	-0.084839	-0.006409	-0.018311
9.242	0.005951	0.05661	-0.036316	-0.008087	0.002899	0.039368	-0.28336	-0.003357	-0.03479	0.059814	-0.045929	-0.034332	0.12024	0.056458	0.083313	-0.1445	-0.014801	-0.081787	0.008087	0.1088	0.07019	0.077209	0.096893	0.059509	-0.011444	-0.003052	0.19989	0.000763	-0.02243	-0.023804	-0.006104	-0.018768
9.243	-0.007477	0.035858	-0.14099	0.002289	0.010834	0.084991	-0.24536	0.007935	-0.00351	0.33203	-0.04364	-0.02655	0.10422	-0.11795	-0.0177	0.14893	0.033569	0.029449	0.065002	0.24811	0.025635	0.059814	-0.037842	-0.015106	-0.031128	-0.000763	-0.037537	0.001678	-0.13763	-0.085449	-0.006714	-0.010529
9.244	-0.009003	0.02594	-0.14725	0.011597	0.005646	0.26474	-0.15335	0.002289	0.033264	0.42282	0.045166	-0.017548	0.16708	-0.27069	-0.040436	0.30975	0.038147	0.010071	-0.15182	-0.032959	-0.021362	0.020599	-0.027161	-0.12619	0.004425	-0.006561	0.19806	0.002441	-0.24353	-0.11566	-0.004425	-0.018768
9.245	-0.000305	0.10696	-0.025024	0.021515	-0.025177	0.23285	-0.09079	0.00946	0.063171	0.39887	0.001526	0.003967	0.16434	-0.33127	0.031891	-0.058441	-0.050964	0.059814	0.053406	-0.30823	-0.053101	0.031281	0.052338	-0.1648	-0.01709	-0.000916	0.3122	0.001526	-0.12283	-0.19119	-0.005951	-0.018463
9.246	0.00885	0.27298	0.048523	0.015869	-0.054626	0.077972	-0.065765	0.001221	0.16357	0.5864	0.080109	0.00351	-0.029449	-0.19257	0.015564	-0.16922	-0.10742	0.15106	0.17654	-0.29388	-0.067444	0.033417	0.13489	-0.16281	-0.025177	0.007324	-0.020447	-0.005951	-0.002747	-0.18707	-0.007172	-0.0177
